<svg xmlns="http://www.w3.org/2000/svg" xmlns:xlink="http://www.w3.org/1999/xlink" width="500" zoomAndPan="magnify" viewBox="0 0 375 374.999991" height="500" preserveAspectRatio="xMidYMid meet" version="1.0"><defs><g/><clipPath id="7dbd2c8b85"><path d="M 44.425781 39.527344 L 329.613281 39.527344 L 329.613281 324.714844 L 44.425781 324.714844 Z M 44.425781 39.527344 " clip-rule="nonzero"/></clipPath><clipPath id="c09bc0620e"><path d="M 187.019531 39.527344 C 108.265625 39.527344 44.425781 103.367188 44.425781 182.121094 C 44.425781 260.875 108.265625 324.714844 187.019531 324.714844 C 265.773438 324.714844 329.613281 260.875 329.613281 182.121094 C 329.613281 103.367188 265.773438 39.527344 187.019531 39.527344 Z M 187.019531 39.527344 " clip-rule="nonzero"/></clipPath><clipPath id="23e04f4a5e"><path d="M 194.609375 81.800781 L 250.78125 81.800781 L 250.78125 137.972656 L 194.609375 137.972656 Z M 194.609375 81.800781 " clip-rule="nonzero"/></clipPath><clipPath id="95faa06f7c"><path d="M 222.695312 81.800781 C 207.183594 81.800781 194.609375 94.375 194.609375 109.886719 C 194.609375 125.398438 207.183594 137.972656 222.695312 137.972656 C 238.207031 137.972656 250.78125 125.398438 250.78125 109.886719 C 250.78125 94.375 238.207031 81.800781 222.695312 81.800781 Z M 222.695312 81.800781 " clip-rule="nonzero"/></clipPath></defs><g clip-path="url(#7dbd2c8b85)"><g clip-path="url(#c09bc0620e)"><path fill="#f8f8f8" d="M 44.425781 39.527344 L 329.613281 39.527344 L 329.613281 324.714844 L 44.425781 324.714844 Z M 44.425781 39.527344 " fill-opacity="1" fill-rule="nonzero"/></g></g><g fill="#212722" fill-opacity="1"><g transform="translate(17.638811, 286.26631)"><g><path d="M 191.484375 -52.265625 C 191.484375 -17.421875 169.148438 0 124.484375 0 L 26.609375 0 C 24.867188 0 23.363281 -0.628906 22.09375 -1.890625 C 20.820312 -3.160156 20.1875 -4.671875 20.1875 -6.421875 L 20.1875 -159.890625 C 20.1875 -161.628906 20.820312 -163.132812 22.09375 -164.40625 C 23.363281 -165.675781 24.867188 -166.3125 26.609375 -166.3125 L 122.109375 -166.3125 C 144.597656 -166.3125 161.1875 -162.226562 171.875 -154.0625 C 182.570312 -145.90625 187.921875 -133.59375 187.921875 -117.125 L 187.921875 -116.40625 C 187.921875 -108.8125 185.859375 -102.320312 181.734375 -96.9375 C 177.617188 -91.550781 173.347656 -88.144531 168.921875 -86.71875 C 175.097656 -84.8125 180.398438 -80.648438 184.828125 -74.234375 C 189.265625 -67.828125 191.484375 -60.503906 191.484375 -52.265625 Z M 81.96875 -64.140625 L 81.96875 -40.859375 L 116.40625 -40.859375 C 120.050781 -40.859375 122.785156 -42.085938 124.609375 -44.546875 C 126.429688 -47.003906 127.34375 -49.738281 127.34375 -52.75 L 127.34375 -52.984375 C 127.34375 -55.992188 126.351562 -58.601562 124.375 -60.8125 C 122.394531 -63.03125 119.738281 -64.140625 116.40625 -64.140625 Z M 121.046875 -107.265625 C 122.710938 -109.566406 123.546875 -112.140625 123.546875 -114.984375 C 123.546875 -117.835938 122.710938 -120.289062 121.046875 -122.34375 C 119.378906 -124.40625 116.960938 -125.4375 113.796875 -125.4375 L 81.96875 -125.4375 L 81.96875 -103.828125 L 113.796875 -103.828125 C 116.960938 -103.828125 119.378906 -104.972656 121.046875 -107.265625 Z M 121.046875 -107.265625 "/></g></g></g><g clip-path="url(#23e04f4a5e)"><g clip-path="url(#95faa06f7c)"><path fill="#212722" d="M 194.609375 81.800781 L 250.78125 81.800781 L 250.78125 137.972656 L 194.609375 137.972656 Z M 194.609375 81.800781 " fill-opacity="1" fill-rule="nonzero"/></g></g><g fill="#212722" fill-opacity="1"><g transform="translate(214.535041, 304.881481)"><g><path d="M -0.203125 -8.96875 L 2.109375 -9.640625 C 3.515625 -10.0625 4.1875 -9.734375 4.4375 -8.859375 C 4.78125 -7.703125 4.140625 -7.109375 2.9375 -6.75 L 0.640625 -6.078125 Z M 0.953125 -0.28125 L 5 -1.46875 C 7.09375 -2.078125 7.84375 -3.6875 7.40625 -5.1875 C 6.921875 -6.796875 5.703125 -6.921875 5 -6.96875 C 5.90625 -7.78125 5.859375 -8.703125 5.671875 -9.328125 C 5.3125 -10.59375 4.09375 -11.4375 2.328125 -10.921875 L -1.8125 -9.703125 Z M 0.9375 -5.046875 L 3.4375 -5.78125 C 4.46875 -6.09375 5.71875 -6.1875 6.109375 -4.859375 C 6.421875 -3.8125 5.9375 -2.9375 4.625 -2.546875 L 1.90625 -1.75 Z M 0.9375 -5.046875 "/></g></g></g><g fill="#212722" fill-opacity="1"><g transform="translate(228.268822, 300.53173)"><g><path d="M 0.484375 -4.78125 L 3.421875 -6.046875 C 4.890625 -6.671875 5.390625 -5.875 5.71875 -5.125 C 5.859375 -4.796875 6.5 -3.453125 6.90625 -2.96875 L 8.390625 -3.609375 L 8.296875 -3.828125 C 7.859375 -3.875 7.640625 -4.015625 7.4375 -4.515625 L 6.734375 -6.140625 C 6.1875 -7.40625 5.40625 -7.25 4.890625 -7.359375 C 5.3125 -7.9375 5.78125 -8.734375 5.21875 -10.0625 C 4.390625 -11.96875 2.6875 -11.828125 1.203125 -11.203125 L -2.953125 -9.40625 L 0.921875 -0.390625 L 2.140625 -0.921875 Z M -1.28125 -8.890625 L 1.765625 -10.203125 C 2.359375 -10.453125 3.421875 -10.78125 4.015625 -9.390625 C 4.59375 -8.0625 3.734375 -7.421875 2.84375 -7.03125 L 0.03125 -5.828125 Z M -1.28125 -8.890625 "/></g></g></g><g fill="#212722" fill-opacity="1"><g transform="translate(241.827589, 294.34375)"><g><path d="M 4.1875 -5.734375 L 6.453125 -3.75 L 7.71875 -4.484375 L -0.28125 -11.1875 L -1.578125 -10.4375 L 0.15625 -0.09375 L 1.34375 -0.78125 L 0.796875 -3.765625 Z M 0.546875 -4.984375 L -0.25 -9.53125 L 3.1875 -6.515625 Z M 0.546875 -4.984375 "/></g></g></g><g fill="#212722" fill-opacity="1"><g transform="translate(254.090073, 286.882753)"><g><path d="M 4.84375 -6.03125 L 4.828125 -6.015625 L -3.859375 -9.375 L -5.109375 -8.4375 L 0.796875 -0.609375 L 1.828125 -1.375 L -2.9375 -7.703125 L -2.921875 -7.71875 L 5.828125 -4.390625 L 7.015625 -5.296875 L 1.109375 -13.125 L 0.078125 -12.34375 Z M 4.84375 -6.03125 "/></g></g></g><g fill="#212722" fill-opacity="1"><g transform="translate(265.895773, 277.565267)"><g><path d="M 0.71875 -0.703125 L 3.53125 -3.421875 C 5.84375 -5.671875 4.546875 -8.375 3.015625 -9.953125 C 1.0625 -11.96875 -1.421875 -12.28125 -3.265625 -10.5 L -6.109375 -7.75 Z M -4.359375 -7.859375 L -2.59375 -9.578125 C -1.296875 -10.828125 0.390625 -10.71875 2.109375 -8.9375 C 3.828125 -7.15625 3.953125 -5.40625 2.71875 -4.21875 L 0.875 -2.4375 Z M -4.359375 -7.859375 "/></g></g></g><g fill="#212722" fill-opacity="1"><g transform="translate(276.442048, 266.928797)"><g><path d="M 1.65625 -9.921875 C 3.453125 -8.484375 3.96875 -6.453125 2.640625 -4.78125 C 1.3125 -3.125 -0.8125 -3.171875 -2.625 -4.609375 C -4.4375 -6.0625 -4.921875 -8.09375 -3.59375 -9.75 C -2.265625 -11.421875 -0.15625 -11.359375 1.65625 -9.921875 Z M 2.515625 -11 C 0.84375 -12.328125 -2.21875 -13.34375 -4.5 -10.484375 C -6.78125 -7.625 -5.125 -4.859375 -3.453125 -3.53125 C -1.796875 -2.203125 1.28125 -1.1875 3.5625 -4.046875 C 5.84375 -6.90625 4.171875 -9.671875 2.515625 -11 Z M 2.515625 -11 "/></g></g></g><g fill="#212722" fill-opacity="1"><g transform="translate(286.159962, 254.179037)"><g><path d="M 2.28125 -7.390625 L 2.265625 -7.359375 L -7.046875 -7.28125 L -7.859375 -5.953125 L 0.515625 -0.859375 L 1.1875 -1.953125 L -5.578125 -6.078125 L -5.5625 -6.09375 L 3.796875 -6.234375 L 4.5625 -7.5 L -3.8125 -12.59375 L -4.484375 -11.5 Z M 2.28125 -7.390625 "/></g></g></g><g fill="#ffffff" fill-opacity="1"><g transform="translate(209.452841, 108.775891)"><g><path d="M 0.828125 -8.59375 L 0.828125 0 L 7.359375 0 L 7.359375 -1.484375 L 2.625 -1.484375 L 2.625 -3.859375 L 6.796875 -3.859375 L 6.796875 -5.34375 L 2.625 -5.34375 L 2.625 -7.125 L 7.171875 -7.125 L 7.171875 -8.59375 Z M 0.828125 -8.59375 "/></g></g></g><g fill="#ffffff" fill-opacity="1"><g transform="translate(217.347364, 108.775891)"><g><path d="M 0.46875 -2.65625 C 0.46875 -1.59375 1 0.21875 4.140625 0.21875 C 4.890625 0.21875 7.515625 0 7.515625 -2.59375 C 7.515625 -4.140625 6.4375 -4.609375 5.265625 -4.90625 L 3.171875 -5.40625 C 2.8125 -5.5 2.265625 -5.640625 2.265625 -6.3125 C 2.265625 -7.078125 3.078125 -7.34375 3.765625 -7.34375 C 5.328125 -7.34375 5.46875 -6.4375 5.515625 -6.046875 L 7.234375 -6.046875 C 7.234375 -7.09375 6.53125 -8.828125 3.890625 -8.828125 C 1.109375 -8.828125 0.59375 -7.125 0.59375 -6.1875 C 0.59375 -4.875 1.296875 -4.15625 2.515625 -3.859375 L 4.234375 -3.4375 C 5.15625 -3.203125 5.796875 -3.046875 5.796875 -2.375 C 5.796875 -1.46875 4.859375 -1.25 4 -1.25 C 2.4375 -1.25 2.171875 -2.171875 2.171875 -2.65625 Z M 0.46875 -2.65625 "/></g></g></g><g fill="#ffffff" fill-opacity="1"><g transform="translate(225.31291, 108.775891)"><g><path d="M 4.546875 -7.125 L 7.140625 -7.125 L 7.140625 -8.59375 L 0.171875 -8.59375 L 0.171875 -7.125 L 2.765625 -7.125 L 2.765625 0 L 4.546875 0 Z M 4.546875 -7.125 "/></g></g></g><g fill="#ffffff" fill-opacity="1"><g transform="translate(232.615647, 108.775891)"><g><path d="M 2.546875 -1.734375 L 0.765625 -1.734375 L 0.765625 0 L 2.546875 0 Z M 2.546875 -1.734375 "/></g></g></g><g fill="#ffffff" fill-opacity="1"><g transform="translate(209.382529, 120.025891)"><g><path d="M 2.03125 -5.5 C 2.03125 -6.125 2.078125 -7.078125 3.25 -7.078125 C 4.078125 -7.078125 4.421875 -6.4375 4.421875 -5.875 C 4.421875 -4.921875 3.828125 -4.484375 2.28125 -3.375 C 0.453125 -2.03125 0.375 -1 0.3125 0 L 6.09375 0 L 6.09375 -1.484375 L 2.421875 -1.484375 C 2.625 -1.875 3.1875 -2.296875 4.328125 -3.0625 C 5.1875 -3.609375 6.09375 -4.359375 6.09375 -5.8125 C 6.09375 -7.546875 4.8125 -8.484375 3.1875 -8.484375 C 2.421875 -8.484375 0.421875 -8.25 0.421875 -5.5 Z M 2.03125 -5.5 "/></g></g></g><g fill="#ffffff" fill-opacity="1"><g transform="translate(216.034292, 120.025891)"><g><path d="M 0.390625 -4.140625 C 0.390625 -1.15625 1.328125 0.234375 3.328125 0.234375 C 5.328125 0.234375 6.265625 -1.15625 6.265625 -4.140625 C 6.265625 -7.125 5.359375 -8.484375 3.359375 -8.484375 C 1.34375 -8.484375 0.390625 -7.125 0.390625 -4.140625 Z M 2.109375 -4.140625 C 2.109375 -6.328125 2.375 -7.15625 3.328125 -7.15625 C 4.28125 -7.15625 4.546875 -6.328125 4.546875 -4.140625 C 4.546875 -1.9375 4.28125 -1.09375 3.328125 -1.09375 C 2.375 -1.09375 2.109375 -1.9375 2.109375 -4.140625 Z M 2.109375 -4.140625 "/></g></g></g><g fill="#ffffff" fill-opacity="1"><g transform="translate(222.686056, 120.025891)"><g><path d="M 0.390625 -4.140625 C 0.390625 -1.15625 1.328125 0.234375 3.328125 0.234375 C 5.328125 0.234375 6.265625 -1.15625 6.265625 -4.140625 C 6.265625 -7.125 5.359375 -8.484375 3.359375 -8.484375 C 1.34375 -8.484375 0.390625 -7.125 0.390625 -4.140625 Z M 2.109375 -4.140625 C 2.109375 -6.328125 2.375 -7.15625 3.328125 -7.15625 C 4.28125 -7.15625 4.546875 -6.328125 4.546875 -4.140625 C 4.546875 -1.9375 4.28125 -1.09375 3.328125 -1.09375 C 2.375 -1.09375 2.109375 -1.9375 2.109375 -4.140625 Z M 2.109375 -4.140625 "/></g></g></g><g fill="#ffffff" fill-opacity="1"><g transform="translate(229.337819, 120.025891)"><g><path d="M 2.03125 -5.5 C 2.03125 -6.125 2.078125 -7.078125 3.25 -7.078125 C 4.078125 -7.078125 4.421875 -6.4375 4.421875 -5.875 C 4.421875 -4.921875 3.828125 -4.484375 2.28125 -3.375 C 0.453125 -2.03125 0.375 -1 0.3125 0 L 6.09375 0 L 6.09375 -1.484375 L 2.421875 -1.484375 C 2.625 -1.875 3.1875 -2.296875 4.328125 -3.0625 C 5.1875 -3.609375 6.09375 -4.359375 6.09375 -5.8125 C 6.09375 -7.546875 4.8125 -8.484375 3.1875 -8.484375 C 2.421875 -8.484375 0.421875 -8.25 0.421875 -5.5 Z M 2.03125 -5.5 "/></g></g></g></svg>